<?xml version="1.0" encoding="UTF-8" standalone="no"?><!DOCTYPE svg PUBLIC "-//W3C//DTD SVG 1.1//EN" "http://www.w3.org/Graphics/SVG/1.1/DTD/svg11.dtd"><svg width="100%" height="100%" viewBox="0 0 1646 574" version="1.1" xmlns="http://www.w3.org/2000/svg" xmlns:xlink="http://www.w3.org/1999/xlink" xml:space="preserve" xmlns:serif="http://www.serif.com/" style="fill-rule:evenodd;clip-rule:evenodd;stroke-linecap:round;stroke-linejoin:round;stroke-miterlimit:1.5;"><rect x="331.04" y="0" width="975.169" height="524.831" style="fill:#c3c3c3;"/><rect x="337.358" y="6.1" width="975.169" height="524.831" style="fill:#ebebeb;"/><g transform="matrix(382.409469,0,0,382.409469,615.658175,310.71451)"></g><text x="392.337px" y="310.715px" style="font-family:'ArialMT', 'Arial', sans-serif;font-size:382.409px;">&gt;</text><g transform="matrix(-1,-0,0,-1,9415.006527,12926.613143)"><g transform="matrix(382.409469,0,0,382.409469,8392.363856,12885.713908)"></g><text x="8169.043px" y="12885.714px" style="font-family:'ArialMT', 'Arial', sans-serif;font-size:382.409px;">&gt;</text></g><rect x="698.198" y="400.496" width="253.49" height="29.42" style="fill:#606060;stroke:#000;stroke-width:2.5px;"/><path d="M1508.023,296.791c26.362,49.795 30.647,55.164 30.647,55.164c0,0 -177.75,9.194 -101.134,113.392c76.617,104.198 161.525,-19.29 160.444,-47.953c-1.081,-28.663 46.421,52.55 46.421,52.55c0,0 -176.218,173.153 -263.561,55.164c-87.343,-117.989 113.392,-254.367 127.183,-228.317Z" style="fill:#e7e7e7;stroke:#000;stroke-width:2.5px;"/><path d="M4.483,423.544c49.795,-26.362 55.164,-30.647 55.164,-30.647c0,0 9.194,177.75 113.392,101.134c104.198,-76.617 -19.29,-161.525 -47.953,-160.444c-28.663,1.081 52.55,-46.421 52.55,-46.421c0,0 173.153,176.218 55.164,263.561c-117.989,87.343 -254.367,-113.392 -228.317,-127.183Z" style="fill:#e7e7e7;stroke:#000;stroke-width:2.5px;"/></svg>